<?xml version="1.0" encoding="UTF-8"?>
<svg width="24px" height="24px" viewBox="0 0 24 24" version="1.1" xmlns="http://www.w3.org/2000/svg" xmlns:xlink="http://www.w3.org/1999/xlink">
    <!-- Generator: Sketch 63.1 (92452) - https://sketch.com -->
    <title>Combined Shape</title>
    <desc>Created with Sketch.</desc>
    <g id="SVG-Output" stroke="none" stroke-width="1" fill="none" fill-rule="evenodd">
        <g id="iPhone-8" transform="translate(-221.000000, -509.000000)" fill="#040714" fill-rule="nonzero">
            <path d="M241.942948,509 L245,512.060783 L245,529.939186 L241.943809,533 L224.09241,533 L221.036251,529.938323 L221.036,529.727 L221,529.680082 L221.036,529.653 L221.036,512.499 L221.032975,512.496133 L221.036,512.491 L221.036251,512.061645 L224.093271,509 L241.942948,509 Z M238.447,529.001 L227.226,529.001 L224.745,532.261 L240.927,532.261 L238.447,529.001 Z M240.501,527.425 L239.181,528.748 L241.76,532.138 L243.887,530.008 L240.501,527.425 Z M225.377,527.268 L221.991,529.851 L224.069,531.933 L226.649,528.541 L225.377,527.268 Z M244.262,512.784 L241.007,515.268 L241.007,526.882 L244.262,529.366 L244.262,512.784 Z M221.773,513.061 L221.773,529.09 L225.028,526.606 L225.028,515.545 L221.773,513.061 Z M235.958,525.73 L229.715,525.73 L227.787,528.263 L237.885,528.263 L235.958,525.73 Z M237.247,524.941 L236.701,525.488 L238.73,528.155 L239.91,526.973 L237.247,524.941 Z M228.631,524.785 L225.969,526.816 L227.099,527.949 L229.128,525.282 L228.631,524.785 Z M240.27,515.83 L237.741,517.76 L237.741,524.39 L240.27,526.32 L240.27,515.83 Z M225.765,516.107 L225.765,526.043 L228.294,524.113 L228.294,518.037 L225.765,516.107 Z M236.155046,517.007459 L229.880978,517.007459 L229.031388,517.858334 L229.031388,524.141155 L229.880609,524.992399 L236.154677,524.992399 L237.004268,524.141893 L237.004268,517.857965 L236.155046,517.007459 Z M227.043,514.107 L225.883,515.269 L228.545,517.3 L229.072,516.773 L227.043,514.107 Z M238.786,513.901 L236.758,516.567 L237.333,517.144 L239.996,515.112 L238.786,513.901 Z M237.985,513.736 L227.687,513.736 L229.614,516.269 L236.058,516.269 L237.985,513.736 Z M224.013,510.124 L221.906,512.234 L225.291,514.817 L226.592,513.514 L224.013,510.124 Z M241.816,509.918 L239.237,513.308 L240.587,514.66 L243.973,512.076 L241.816,509.918 Z M241.026,509.738 L224.646,509.738 L227.126,512.998 L238.546,512.998 L241.026,509.738 Z" id="Combined-Shape"></path>
        </g>
    </g>
</svg>