<?xml version="1.0" encoding="UTF-8"?>
<svg width="16px" height="24px" viewBox="0 0 16 24" version="1.1" xmlns="http://www.w3.org/2000/svg" xmlns:xlink="http://www.w3.org/1999/xlink">
    <!-- Generator: Sketch 63.1 (92452) - https://sketch.com -->
    <title>Combined Shape</title>
    <desc>Created with Sketch.</desc>
    <g id="Main" stroke="none" stroke-width="1" fill="none" fill-rule="evenodd">
        <g id="Filter---Gemstone" transform="translate(-76.000000, -356.000000)" fill="#040714" fill-rule="nonzero">
            <g id="Group-24" transform="translate(52.000000, 350.000000)">
                <path d="M40,6 L40,30 L24,30 L24,6 L40,6 Z M37.667,28.181 L26.332,28.181 L25.241,29.272 L38.758,29.272 L37.667,28.181 Z M24.727,7.241 L24.727,28.758 L25.818,27.667 L25.818,8.332 L24.727,7.241 Z M39.272,7.241 L38.181,8.332 L38.181,27.667 L39.272,28.758 L39.272,7.241 Z M35.849,26.363 L28.151,26.363 L27.06,27.454 L36.94,27.454 L35.849,26.363 Z M37.454,9.06 L36.363,10.151 L36.363,25.849 L37.454,26.94 L37.454,9.06 Z M26.545,9.059 L26.545,26.939 L27.636,25.848 L27.636,10.15 L26.545,9.059 Z M35.6363636,10.3636364 L28.3636364,10.3636364 L28.3636364,25.6363636 L35.6363636,25.6363636 L35.6363636,10.3636364 Z M36.939,8.545 L27.059,8.545 L28.15,9.636 L35.848,9.636 L36.939,8.545 Z M38.758,6.727 L25.241,6.727 L26.332,7.818 L37.667,7.818 L38.758,6.727 Z" id="Combined-Shape"></path>
            </g>
        </g>
    </g>
</svg>