<?xml version="1.0" encoding="UTF-8"?>
<svg width="24px" height="24px" viewBox="0 0 24 24" version="1.1" xmlns="http://www.w3.org/2000/svg" xmlns:xlink="http://www.w3.org/1999/xlink">
    <!-- Generator: Sketch 63.1 (92452) - https://sketch.com -->
    <title>Combined Shape</title>
    <desc>Created with Sketch.</desc>
    <g id="Main" stroke="none" stroke-width="1" fill="none" fill-rule="evenodd">
        <g id="Filter---Gemstone" transform="translate(-76.000000, -260.000000)" fill="#040714" fill-rule="nonzero">
            <g id="Group-23" transform="translate(52.000000, 254.000000)">
                <path d="M33.9375,17.8208955 C38.168629,17.8208955 41.625,20.5299073 41.625,23.9104478 C41.625,27.2909882 38.168629,30 33.9375,30 C29.706371,30 26.25,27.2909882 26.25,23.9104478 C26.25,20.5299073 29.706371,17.8208955 33.9375,17.8208955 Z M33.9375,18.5373134 C30.0914645,18.5373134 27,20.9603212 27,23.9104478 C27,26.8605743 30.0914645,29.2835821 33.9375,29.2835821 C37.7835355,29.2835821 40.875,26.8605743 40.875,23.9104478 C40.875,20.9603212 37.7835355,18.5373134 33.9375,18.5373134 Z M44.4375,6.71641791 C46.4952818,6.71641791 48,10.1829504 48,14.4179104 C48,18.6528705 46.4952818,22.119403 44.4375,22.119403 C42.3797182,22.119403 40.875,18.6528705 40.875,14.4179104 L40.875,14.4179104 L40.8756089,14.2704952 C40.9100682,10.1028021 42.4036459,6.71641791 44.4375,6.71641791 Z M44.4375,7.43283582 C42.9744665,7.43283582 41.625,10.5417034 41.625,14.4179104 L41.625,14.4179104 L41.6256628,14.566612 C41.6596204,18.3733211 42.9932234,21.4029851 44.4375,21.4029851 C45.9005335,21.4029851 47.25,18.2941175 47.25,14.4179104 C47.25,10.5417034 45.9005335,7.43283582 44.4375,7.43283582 Z M29.4375,6 C32.4405483,6 34.875,8.32544637 34.875,11.1940299 C34.875,14.0626133 32.4405483,16.3880597 29.4375,16.3880597 C26.4344517,16.3880597 24,14.0626133 24,11.1940299 C24,8.32544637 26.4344517,6 29.4375,6 Z M29.4375,6.71641791 C26.8486652,6.71641791 24.75,8.72111306 24.75,11.1940299 C24.75,13.6669466 26.8486652,15.6716418 29.4375,15.6716418 C32.0263348,15.6716418 34.125,13.6669466 34.125,11.1940299 C34.125,8.72111306 32.0263348,6.71641791 29.4375,6.71641791 Z" id="Combined-Shape"></path>
            </g>
        </g>
    </g>
</svg>