<?xml version="1.0" encoding="UTF-8"?>
<svg width="24px" height="24px" viewBox="0 0 24 24" version="1.1" xmlns="http://www.w3.org/2000/svg" xmlns:xlink="http://www.w3.org/1999/xlink">
    <!-- Generator: Sketch 63.1 (92452) - https://sketch.com -->
    <title>Combined Shape</title>
    <desc>Created with Sketch.</desc>
    <g id="Main" stroke="none" stroke-width="1" fill="none" fill-rule="evenodd">
        <g id="Filter---Gemstone" transform="translate(-233.000000, -116.000000)" fill="#040714" fill-rule="nonzero">
            <g id="Group-17" transform="translate(211.000000, 110.000000)">
                <path d="M34.0113583,6 L37.7836759,6.11788493 C42.1979193,6.25583003 45.74417,9.80208067 45.8821151,14.2163241 L45.8821151,14.2163241 L46,18.0113583 L45.8821151,21.7836759 C45.74417,26.1979193 42.1979193,29.74417 37.7836759,29.8821151 L37.7836759,29.8821151 L33.9886417,30 L30.2163241,29.8821151 C25.8020807,29.74417 22.25583,26.1979193 22.1178849,21.7836759 L22.1178849,21.7836759 L22,17.9886417 L22.1178849,14.2163241 C22.25583,9.80208067 25.8020807,6.25583003 30.2163241,6.11788493 L30.2163241,6.11788493 L33.9886417,6 L34.0113583,6 Z M22.9135803,22.57603 C23.3726166,25.8960951 25.9597596,28.5307804 29.2562565,29.0613331 L28.609,23.398 L28.6027476,23.3972524 L28.6,23.387 Z M45.0864197,22.57603 L39.399,23.387 L39.3972524,23.3972524 L39.39,23.398 L38.7437435,29.0613331 C42.0402404,28.5307804 44.6273834,25.8960951 45.0864197,22.57603 Z M34,25.1081051 L30.7835888,28.9092522 L37.2160476,28.9092522 L34,25.1081051 Z M29.359,23.559 L29.954,28.763 L33.591,24.465 L29.359,23.559 Z M38.64,23.559 L34.409,24.465 L38.045,28.763 L38.64,23.559 Z M34,12.1897323 L29.2148383,13.2148383 L28.1897323,18 L29.214,22.782 L29.2703056,22.7769628 L29.272,22.796 L34,23.8099041 L38.727,22.796 L38.7296944,22.7769628 L38.784,22.782 L39.8099041,18 L38.784798,13.2148383 L34,12.1897323 Z M27.529,18.385 L23.368,21.905 L28.438,22.629 L27.529,18.385 Z M40.47,18.385 L39.561,22.629 L44.631,21.905 L40.47,18.385 Z M44.7274313,14.6017679 L40.9262842,17.8181791 L44.7274313,21.0342267 L44.7274313,14.6017679 Z M23.2725687,14.6021316 L23.2725687,21.033863 L27.0733521,17.8181791 L23.2725687,14.6021316 Z M28.444,13.338 L23.563,13.895 L27.594,17.306 L28.444,13.338 Z M39.555,13.338 L40.405,17.306 L44.436,13.895 L39.555,13.338 Z M38.6030642,6.91736727 L39.412,12.589 L45.0579242,13.235262 C44.5210509,9.95772387 41.9033464,7.38567444 38.6030642,6.91736727 Z M29.3969358,6.91736727 C26.0966536,7.38567444 23.4789491,9.95772387 22.9420758,13.235262 L28.587,12.589 Z M30.068,7.37 L29.343,12.443 L33.591,11.534 L30.068,7.37 Z M37.931,7.371 L34.409,11.534 L38.656,12.443 L37.931,7.371 Z M37.2160476,7.09038415 L30.7835888,7.09038415 L34,10.8915313 L37.2160476,7.09038415 Z" id="Combined-Shape"></path>
            </g>
        </g>
    </g>
</svg>