<?xml version="1.0" encoding="UTF-8"?>
<svg width="16px" height="24px" viewBox="0 0 16 24" version="1.1" xmlns="http://www.w3.org/2000/svg" xmlns:xlink="http://www.w3.org/1999/xlink">
    <!-- Generator: Sketch 63.1 (92452) - https://sketch.com -->
    <title>Combined Shape</title>
    <desc>Created with Sketch.</desc>
    <g id="Main" stroke="none" stroke-width="1" fill="none" fill-rule="evenodd">
        <g id="Filter---Gemstone" transform="translate(-78.000000, -308.000000)" fill="#040714" fill-rule="nonzero">
            <g id="Group-15" transform="translate(52.000000, 302.000000)">
                <path d="M28.7592899,30 L26,26.9256472 L26,9.07433043 L28.7598584,6 L39.2401091,6 L42,9.07346903 L42,26.9265086 L39.2406776,30 L28.7592899,30 Z M28.887,25.818 L26.846,26.755 L29.0949105,29.2614576 L29.134,29.261 L30.279,27.34 L28.887,25.818 Z M37.014,27.499 L30.986,27.499 L31,27.5130625 L29.958,29.261 L38.042,29.261 L37,27.5130625 L37.014,27.499 Z M39.205,25.719 L37.72,27.341 L38.866,29.261 L38.9047163,29.2614576 L41.154,26.755 L39.205,25.719 Z M37.2402015,9.24165616 L30.7590462,9.24165616 L29.2521682,10.8890646 L29.2521682,25.1101081 L30.7590462,26.7582583 L37.2405776,26.7582583 L38.7474556,25.1112207 L38.7474556,10.8886937 L37.2402015,9.24165616 Z M41.253,9.934 L39.5,10.965 L39.5,25.062 L41.253,25.992 L41.253,9.934 Z M26.746,9.934 L26.746,25.891 L28.5,25.085 L28.5,10.965 L26.746,9.934 Z M29.218,6.738 L29.0952837,6.73817321 L26.848,9.24 L28.734,10.348 L30.268,8.67 L29.218,6.738 Z M39.121,6.98 L38.027,8.993 L39.266,10.348 L41.151,9.24 L39.121,6.98 Z M38.517,6.738 L29.953,6.738 L30.911,8.499 L37.56,8.499 L38.517,6.738 Z" id="Combined-Shape"></path>
            </g>
        </g>
    </g>
</svg>