<?xml version="1.0" encoding="UTF-8"?>
<svg width="24px" height="24px" viewBox="0 0 24 24" version="1.1" xmlns="http://www.w3.org/2000/svg" xmlns:xlink="http://www.w3.org/1999/xlink">
    <!-- Generator: Sketch 63.1 (92452) - https://sketch.com -->
    <title>Combined Shape</title>
    <desc>Created with Sketch.</desc>
    <g id="Main" stroke="none" stroke-width="1" fill="none" fill-rule="evenodd">
        <g id="Filter---Gemstone" transform="translate(-233.000000, -404.000000)" fill="#040714" fill-rule="nonzero">
            <g id="Group-22" transform="translate(211.000000, 398.000000)">
                <path d="M22,12.6939243 C22,6.31382566 25.9968354,4.48990002 33.6549543,7.24173752 L33.6549543,7.24173752 L33.9996364,7.36786406 L34.3403566,7.24342289 C41.9233738,4.51725478 45.9180341,6.27579604 45.9987519,12.5000384 L45.9987519,12.5000384 L46,12.6939243 C46,14.478514 45.6881564,16.2138783 45.065528,17.899869 L45.0940834,17.9497847 L45.0331495,17.9867561 C44.0958532,20.4795006 42.4778592,22.8640926 40.1826001,25.1400525 L40.1818182,25.1657951 L40.1575273,25.1648836 C38.6254414,26.6803068 36.7928925,28.1475347 34.6608948,29.5664253 L34.6608948,29.5664253 L34.0012336,30 L33.5672574,29.7173225 C31.3379739,28.2519727 29.4295914,26.7347645 27.8432608,25.1658492 L27.8181818,25.1657951 L27.817355,25.1401948 C25.5220175,22.8642048 23.9039536,20.4794792 22.9666727,17.9864795 L22.9059166,17.9497847 L22.9342693,17.8995147 C22.3117838,16.2136801 22,14.4784358 22,12.6939243 Z M33.636,25.165 L28.888616,25.1653737 C30.2726571,26.46464 31.8905995,27.730595 33.7431757,28.963335 L33.636,28.891 L33.636,25.165 Z M34.6385902,28.7065583 C36.3324915,27.5549445 37.8231893,26.3746007 39.111284,25.1654313 L34.638,25.165 Z M36.9103491,22.7884209 C36.3844263,23.255981 35.806918,23.7148833 35.1779978,24.1651052 L38.979,24.165 Z M31.0896509,22.7884209 L29.019,24.165 L32.8220022,24.1651052 C32.193082,23.7148833 31.6155737,23.255981 31.0896509,22.7884209 Z M24.0046635,18.5973308 C24.8512789,20.4911499 26.1193262,22.3243621 27.8105904,24.0972024 L30.407,22.37 Z M43.9952058,18.5977212 L37.592,22.37 L40.1889686,24.0976462 C41.8803867,22.3247674 43.1485272,20.4915554 43.9952058,18.5977212 Z M40.1818182,15.0376749 C40.1818182,11.8412676 38.2828483,11.035313 34.1283905,12.5989971 L34.1283905,12.5989971 L34.001455,12.646774 L33.6040983,12.5005877 C29.6329409,11.0742852 27.8181818,11.9070053 27.8181818,15.0376749 C27.8181818,18.2938833 29.8063275,21.2724325 33.8272305,23.9791917 L33.8272305,23.9791917 L34,24.0943332 L34.1727695,23.9791917 C38.1327497,21.313444 40.1211047,18.38408 40.1804488,15.1854932 L40.1804488,15.1854932 Z M27.091,15.098 L23.744,17.601 L29.2351326,20.8386192 C27.8768901,19.1095669 27.1612711,17.2735337 27.0958457,15.3315155 L27.091,15.098 Z M40.9088784,15.0987741 C40.8947593,17.126989 40.1772517,19.040644 38.7648674,20.8386192 L44.254,17.602 Z M25.358027,7.15883306 C23.5902201,7.95244367 22.7272727,9.79665843 22.7272727,12.6939243 C22.7272727,14.1495067 22.9460155,15.5733735 23.384173,16.9656129 L27.045,14.226 Z M42.6414361,7.15859205 L40.954,14.226 L44.6161411,16.9647226 C45.0020902,15.7380664 45.2177135,14.4868475 45.2634783,13.2109914 L45.2716305,12.8722901 L45.2727273,12.6939243 C45.2727273,9.7963651 44.4096051,7.95207025 42.6414361,7.15859205 Z M26.201,7.557 L27.4705899,12.8751444 C28.1283849,11.3629947 29.631092,10.8236542 31.9020272,11.2658603 L26.201,7.557 Z M41.798,7.557 L36.0945298,11.2673866 C38.3685603,10.823763 39.8721188,11.3608503 40.5298352,12.8742484 L41.798,7.557 Z M33.6362818,8.00694869 C30.5716424,6.87816799 28.1723673,6.48531643 26.4137969,6.82983368 L33.636,11.527 Z M41.5856636,6.82972801 C39.8802312,6.49579203 37.5723163,6.85523309 34.639433,7.90673844 L34.638,11.349 Z" id="Combined-Shape"></path>
            </g>
        </g>
    </g>
</svg>