<?xml version="1.0" encoding="UTF-8"?>
<svg width="16px" height="24px" viewBox="0 0 16 24" version="1.1" xmlns="http://www.w3.org/2000/svg" xmlns:xlink="http://www.w3.org/1999/xlink">
    <!-- Generator: Sketch 63.1 (92452) - https://sketch.com -->
    <title>Combined Shape</title>
    <desc>Created with Sketch.</desc>
    <g id="Main" stroke="none" stroke-width="1" fill="none" fill-rule="evenodd">
        <g id="Filter---Gemstone" transform="translate(-78.000000, -452.000000)" fill="#040714" fill-rule="nonzero">
            <g id="Group-18" transform="translate(52.000000, 446.000000)">
                <path d="M33.9575348,6 L34.3334286,6.23372213 C38.2709727,8.71506653 40.6835514,11.6559154 41.550652,15.0463852 L41.5533635,15.0433343 L41.5539797,15.059429 C41.7945582,16.0047615 41.9150696,16.9850232 41.9150696,18 C41.9150696,19.0150933 41.7945306,19.9954635 41.5538968,20.9408965 L41.5533635,20.9566657 C40.6698706,24.3971847 38.1951571,27.37671 34.1479205,29.8821422 L34.1479205,29.8821422 L33.9575348,30 L33.7671491,29.8821422 C29.7779881,27.4126616 27.3165443,24.482596 26.4033927,21.1018588 L26.3617061,21.1375188 L26.3611728,20.9408965 C26.120539,19.9954635 26,19.0150933 26,18 C26,13.2820212 28.6039206,9.31414211 33.7671491,6.11785781 L33.7671491,6.11785781 L33.9575348,6 Z M34.9487672,28.4898058 L32.9662458,28.4897662 C33.2277917,28.6728587 33.4976008,28.8537142 33.7756816,29.032337 L33.7756816,29.032337 L33.9575348,29.1481446 L34.139388,29.032337 C34.4174487,28.8537271 34.6872389,28.6728848 34.9487672,28.4898058 Z M29.283496,18.6320341 L27.017123,20.5759106 C27.665807,23.3274336 29.3902863,25.7772292 32.2033931,27.9314801 L33.762,24.815 L33.6131024,24.7231445 C30.953782,23.059683 29.4991862,21.0241969 29.283496,18.6320341 Z M38.6446835,18.4634574 C38.4802627,20.975453 36.9676993,23.0999641 34.1457559,24.8195859 L34.152,24.815 L35.7113859,27.9317026 C38.5759852,25.7380985 40.3117983,23.2380476 40.9323743,20.4250221 Z M33.9575348,26.0428975 L33.0959508,27.7660654 L34.8187571,27.7660654 L33.9575348,26.0428975 Z M33.9575348,11.9150178 L33.8466492,11.985286 C31.2542548,13.6507513 29.9787674,15.6494567 29.9787674,18 C29.9787674,20.3505433 31.2542548,22.3492487 33.8466492,24.014714 L33.8466492,24.014714 L33.9571731,24.0846205 L34.0684204,24.014714 C36.6119017,22.3806726 37.8877018,20.4258476 37.9349397,18.132674 L37.9349397,18.132674 L37.9363022,18 C37.9363022,15.6494567 36.6608148,13.6507513 34.0684204,11.985286 L34.0684204,11.985286 L33.9575348,11.9150178 Z M27.0851184,16.7969654 L27.0851184,19.564379 L28.6994128,18.1808531 L27.0851184,16.7969654 Z M40.8299512,16.6157507 L39.2152951,18 L40.8299512,19.3838876 L40.8299512,16.6157507 Z M32.2033931,8.06851987 C29.286844,10.3019859 27.5404555,12.8531315 26.9499269,15.7288467 L29.2612075,17.7098316 C29.3661769,15.1221212 30.8827085,12.9394391 33.7693137,11.1804141 L33.762,11.184 Z M35.7116765,8.06851987 L34.152,11.184 L34.3019672,11.2768555 C37.0236808,12.9793453 38.483476,15.0715214 38.6447089,17.5369301 L40.9326354,15.5761619 C40.3123063,12.762749 38.5765045,10.2623784 35.7116765,8.06851987 Z M34.8187571,8.23393456 L33.0959508,8.23393456 L33.9575348,9.95674084 L34.8187571,8.23393456 Z M33.9575348,6.85149374 L33.7756816,6.96766302 C33.4976008,7.14628577 33.2277917,7.32714134 32.9662458,7.51023383 L34.9491258,7.51044517 C34.6874855,7.32728052 34.4175758,7.14635449 34.139388,6.96766302 L34.139388,6.96766302 L33.9575348,6.85149374 Z" id="Combined-Shape"></path>
            </g>
        </g>
    </g>
</svg>