<?xml version="1.0" encoding="UTF-8"?>
<svg width="16px" height="24px" viewBox="0 0 16 24" version="1.1" xmlns="http://www.w3.org/2000/svg" xmlns:xlink="http://www.w3.org/1999/xlink">
    <!-- Generator: Sketch 63.1 (92452) - https://sketch.com -->
    <title>Combined Shape</title>
    <desc>Created with Sketch.</desc>
    <g id="Main" stroke="none" stroke-width="1" fill="none" fill-rule="evenodd">
        <g id="Filter---Gemstone" transform="translate(-235.000000, -308.000000)" fill="#040714" fill-rule="nonzero">
            <g id="Group-25" transform="translate(211.000000, 302.000000)">
                <path d="M35.5781148,6 L40,12.7372469 L40,23.2627414 L35.5786741,30 L28.4213121,30 L24,23.2618986 L24,12.7380897 L28.4218714,6 L35.5781148,6 Z M29.134,29.272 L34.865,29.272 L34.138,27.818 L29.861,27.818 L29.134,29.272 Z M26.213,23.363 L24.936,23.363 L28.534,28.846 L29.253,27.406 L26.213,23.363 Z M39.063,23.363 L37.787,23.363 L34.746,27.406 L35.465,28.846 L39.063,23.363 Z M30.225,27.09 L33.774,27.09 L33.047,25.636 L30.952,25.636 L30.225,27.09 Z M28.648,23.363 L27.123,23.363 L29.617,26.679 L30.289,25.334 L28.648,23.363 Z M36.876,23.363 L35.352,23.363 L33.71,25.334 L34.382,26.678 L36.876,23.363 Z M33.1178182,11.0909091 L30.8814545,11.0909091 L29.0909091,13.2407273 L29.0909091,22.7589091 L30.861,24.885 L30.91,24.909 L33.089,24.909 L33.138,24.885 L34.9090909,22.7581818 L34.9090909,13.2414545 L33.1178182,11.0909091 Z M37.09,13.545 L35.636,13.545 L35.636,22.363 L37.09,22.363 L37.09,13.545 Z M39.272,13.545 L37.818,13.545 L37.818,22.363 L39.272,22.363 L39.272,13.545 Z M26.181,13.545 L24.727,13.545 L24.727,22.363 L26.181,22.363 L26.181,13.545 Z M28.363,13.545 L26.909,13.545 L26.909,22.363 L28.363,22.363 L28.363,13.545 Z M28.482,7.232 L24.996,12.545 L26.281,12.545 L29.199,8.665 L28.482,7.232 Z M29.562,9.392 L27.192,12.545 L28.724,12.545 L30.233,10.733 L29.562,9.392 Z M34.436,9.393 L33.766,10.733 L35.276,12.545 L36.807,12.545 L34.436,9.393 Z M35.517,7.232 L34.8,8.665 L37.719,12.545 L39.004,12.545 L35.517,7.232 Z M33.866,8.909 L30.133,8.909 L30.86,10.363 L33.139,10.363 L33.866,8.909 Z M34.957,6.727 L29.042,6.727 L29.769,8.181 L34.23,8.181 L34.957,6.727 Z" id="Combined-Shape"></path>
            </g>
        </g>
    </g>
</svg>