<?xml version="1.0" encoding="UTF-8"?>
<svg width="16px" height="24px" viewBox="0 0 16 24" version="1.1" xmlns="http://www.w3.org/2000/svg" xmlns:xlink="http://www.w3.org/1999/xlink">
    <!-- Generator: Sketch 63.1 (92452) - https://sketch.com -->
    <title>Combined Shape</title>
    <desc>Created with Sketch.</desc>
    <g id="Main" stroke="none" stroke-width="1" fill="none" fill-rule="evenodd">
        <g id="Filter---Gemstone" transform="translate(-78.000000, -116.000000)" fill="#040714" fill-rule="nonzero">
            <g id="Group-20" transform="translate(52.000000, 110.000000)">
                <path d="M34,6 C38.4583611,6 42,11.3967831 42,18 C42,24.6032169 38.4583611,30 34,30 C29.5416389,30 26,24.6032169 26,18 C26,11.3967831 29.5416389,6 34,6 Z M30.868,25.073 L30.2020758,27.6041924 C31.1916128,28.5484358 32.3347965,29.1354836 33.553175,29.2515028 L30.868,25.073 Z M37.084,25.148 L34.4478241,29.2514075 C35.6551099,29.1361856 36.7885377,28.5584723 37.7717715,27.629031 L37.7392456,27.6379976 L37.084,25.148 Z M36.6061818,24.5454545 L31.3934545,24.5454545 L34,28.6 L36.6061818,24.5454545 Z M38.727,18.216 L37.793,23.818 L37.9387875,23.8181818 L37.742,24.124 L37.7223251,24.2415996 L37.672,24.233 L37.617,24.318 L38.3340581,27.0404753 C39.6232527,25.5520401 40.5888632,23.4173905 41.0216478,20.940135 L38.727,18.216 Z M29.321,18.158 L26.9783522,20.940135 C27.4053965,23.3845333 28.3512263,25.4953539 29.6148154,26.9809093 L30.334,24.243 L30.326,24.23 L30.2771356,24.2382683 L30.26,24.127 L30.0612125,23.8181818 L30.211,23.818 L29.321,18.158 Z M30.5087347,21.0343973 L30.947,23.818 L32.6343273,23.8193888 C31.7204551,23.3138926 30.9713706,22.3135241 30.5087347,21.0343973 Z M37.5449145,20.8810113 C37.0877471,22.2334521 36.3157642,23.2938585 35.3656727,23.8193888 L37.055,23.818 Z M34,12.5454545 C32.2376907,12.5454545 30.7272727,14.9621233 30.7272727,18 C30.7272727,21.0378767 32.2376907,23.4545455 34,23.4545455 C35.7623093,23.4545455 37.2727273,21.0378767 37.2727273,18 C37.2727273,14.9621233 35.7623093,12.5454545 34,12.5454545 Z M40.7272727,16.5378182 L39.496,18 L40.7272727,19.4618182 L40.7272727,16.5378182 Z M27.2727273,16.5381818 L27.2727273,19.4614545 L28.5036364,18 L27.2727273,16.5381818 Z M38.1753412,8.78133261 L37.471,11.454 L37.673,11.769 L37.7228644,11.7617317 L37.739,11.872 L37.9387875,12.1818182 L37.788,12.181 L38.678,17.842 L41.0216478,15.059865 C40.5712805,12.4819659 39.5439134,10.2750763 38.1753412,8.78133261 Z M29.6329737,8.9978113 C28.3602885,10.4844558 27.4074396,12.6037718 26.9783522,15.059865 L29.272,17.784 L30.206,12.181 L30.0612125,12.1818182 L30.258,11.874 L30.2776749,11.7584004 L30.328,11.766 L30.351,11.73 Z M32.6343273,12.1806112 L30.944,12.181 L30.4550855,15.1189887 C30.9122529,13.7665479 31.6842358,12.7061415 32.6343273,12.1806112 Z M37.052,12.181 L35.3656727,12.1806112 C36.2795449,12.6861074 37.0286294,13.6864759 37.4912653,14.9656027 L37.052,12.181 Z M34,7.39963636 L31.3930909,11.4545455 L36.6065455,11.4545455 L34,7.39963636 Z M33.553175,6.74849723 C32.3426296,6.86377048 31.2063153,7.44403527 30.2211804,8.37763995 L30.885,10.9 Z M34.4478241,6.74859248 L36.938,10.625 L37.5574274,8.27109335 L37.7061221,8.3096404 C36.7382193,7.41612624 35.6283306,6.86125861 34.4478241,6.74859248 Z" id="Combined-Shape"></path>
            </g>
        </g>
    </g>
</svg>