<?xml version="1.0" encoding="UTF-8"?>
<svg width="18px" height="24px" viewBox="0 0 18 24" version="1.1" xmlns="http://www.w3.org/2000/svg" xmlns:xlink="http://www.w3.org/1999/xlink">
    <!-- Generator: Sketch 63.1 (92452) - https://sketch.com -->
    <title>Combined Shape</title>
    <desc>Created with Sketch.</desc>
    <g id="Main" stroke="none" stroke-width="1" fill="none" fill-rule="evenodd">
        <g id="Filter---Gemstone" transform="translate(-77.000000, -164.000000)" fill="#040714" fill-rule="nonzero">
            <g id="Group-21" transform="translate(52.000000, 158.000000)">
                <path d="M33.8369629,6 L34.1108276,6.31753895 C35.877781,8.36627561 37.3716948,10.2509693 38.592228,11.9735695 C38.7987343,12.0043161 38.9578154,12.1286815 38.9825953,12.282599 L38.9859592,12.3246667 L38.9861294,12.5376722 C41.4445178,16.1119678 42.6753333,18.9594739 42.6753333,21.098738 C42.6753333,21.1057467 42.6753252,21.1127535 42.6753092,21.1197584 L42.760488,21.1623334 L42.674708,21.2057225 C42.6399454,24.17829 41.1583841,26.8008271 38.9059426,28.3917408 C38.8628836,28.4402043 38.8043556,28.4803892 38.7354637,28.5090641 C37.3337301,29.450947 35.6494332,30 33.8376666,30 C28.9561521,30 25,26.0141682 25,21.098738 C25,17.976124 27.6216686,13.3462896 32.8537451,7.15026488 L32.8537451,7.15026488 L33.2064174,6.73487564 L33.8369629,6 Z M29.9665153,24.1060733 L29.967932,28.1963946 C29.967932,28.2257878 29.963059,28.2543599 29.953864,28.2817134 C31.1058114,28.9173159 32.4299336,29.2785578 33.8376666,29.2785578 L33.805,29.277 L31.7349764,25.5532336 C31.037352,25.2168311 30.4317849,24.7182421 29.9665153,24.1060733 Z M37.9859389,23.7009274 C37.5845082,24.3558431 37.0340474,24.9085479 36.3820691,25.3111685 L36.4346833,25.3106259 L34.236539,29.2688514 C35.6020838,29.2022438 36.8791518,28.7954858 37.9860521,28.1308022 Z M35.2080461,26.032068 L32.8276476,26.032068 L34.0180272,28.1747513 L35.2080461,26.032068 Z M25.7270928,21.406844 C25.8207726,23.9566525 27.0723742,26.2079255 28.9672633,27.6426673 L28.967,23.35 Z M41.9405201,21.5722553 L38.985,23.049 L38.9862648,27.4223488 C40.68506,26.015841 41.8071417,23.9275831 41.9405201,21.5722553 Z M33.8376666,13.9608976 L33.6790862,14.1485044 C31.7196477,16.4745443 30.4837279,18.3599218 29.9674063,19.7821723 L29.9664224,22.6380401 C30.5660993,24.2017426 32.0735237,25.3106259 33.8376666,25.3106259 C36.1282011,25.3106259 37.9859592,23.4412702 37.9859592,21.1341846 C37.9859592,19.6831154 36.7054758,17.3919398 34.1351756,14.3141388 L34.1351756,14.3141388 L33.8376666,13.9608976 Z M28.967932,19.454319 L26.4223232,20.9819728 L28.967932,22.5092659 L28.967932,19.454319 Z M38.985,20.081 L38.985,22.242 L41.146958,21.1623334 L38.985,20.081 Z M38.9866014,13.8353075 L38.985,19.275 L41.9423225,20.7537929 C41.8265611,18.9914924 40.8419845,16.681534 38.9866014,13.8353075 Z M28.9665562,13.414829 C27.0080578,16.3405454 25.9369006,18.7204243 25.7507951,20.5424757 L28.967,18.613 Z M35.9381488,9.64990205 L34.031,13.079 L34.2599765,13.3446462 C36.0302576,15.4111452 37.2733505,17.1627406 37.9869212,18.6128054 L37.985482,12.3663578 C37.373826,11.5041978 36.691397,10.5986246 35.9381488,9.64990205 Z M31.7379989,9.64881205 C31.0579072,10.5053592 30.4355467,11.3267416 29.8708792,12.1127606 C29.9215773,12.1611853 29.9543936,12.2194011 29.9645681,12.282599 L29.967932,12.3246667 L29.9663964,18.0809442 C30.7294954,16.6979007 31.9294973,15.0646196 33.5646515,13.1710707 L33.5646515,13.1710707 L33.643,13.079 Z M35.0276855,9.7996191 L32.6472871,9.7996191 L33.8376666,11.9423024 L35.0276855,9.7996191 Z M33.8376666,7.10683618 L33.4056464,7.61491667 C32.9847226,8.11342135 32.581117,8.6014283 32.1948234,9.07890488 L35.4802049,9.07858712 C35.0933356,8.60039847 34.6891059,8.11164654 34.2675103,7.61236334 L34.2675103,7.61236334 L33.8376666,7.10683618 Z" id="Combined-Shape"></path>
            </g>
        </g>
    </g>
</svg>