<?xml version="1.0" encoding="UTF-8"?>
<svg width="24px" height="24px" viewBox="0 0 24 24" version="1.1" xmlns="http://www.w3.org/2000/svg" xmlns:xlink="http://www.w3.org/1999/xlink">
    <!-- Generator: Sketch 63.1 (92452) - https://sketch.com -->
    <title>Combined Shape Copy</title>
    <desc>Created with Sketch.</desc>
    <g id="Main" stroke="none" stroke-width="1" fill="none" fill-rule="evenodd">
        <g id="Filter---Gemstone" transform="translate(-74.000000, -404.000000)" fill="#040714" fill-rule="nonzero">
            <g id="Group-14" transform="translate(52.000000, 398.000000)">
                <path d="M46,6 L46,30 L22,30 L22,6 L46,6 Z M36.067,23.5 L31.933,23.5 L32,23.5943314 L23.53,29.261 L44.47,29.261 L36,23.5943314 L36.067,23.5 Z M22.738,7.528 L22.738,28.471 L28.4056686,20 L28.5,20.068 L28.5,15.932 L28.4056686,16 L22.738,7.528 Z M45.261,7.53 L39.5943314,16 L39.5,15.933 L39.5,20.067 L39.5943314,20 L45.261,28.47 L45.261,7.53 Z M28.8,20.725 L23.796,28.203 L31.274,23.2 L28.8,20.725 Z M39.2,20.725 L36.725,23.2 L44.203,28.203 L39.2,20.725 Z M36.1167274,13.2438736 L31.8829006,13.2438736 L29.2438736,15.8829006 L29.2438736,20.1167274 L31.8825286,22.7557544 L36.1170994,22.7557544 L38.7557544,20.1170994 L38.7557544,15.8825286 L36.1167274,13.2438736 Z M23.795,7.795 L28.8,15.274 L31.274,12.8 L23.795,7.795 Z M44.204,7.795 L36.725,12.8 L39.2,15.274 L44.204,7.795 Z M44.471,6.738 L23.528,6.738 L32,12.4056686 L31.932,12.5 L36.068,12.5 L36,12.4056686 L44.471,6.738 Z" id="Combined-Shape-Copy"></path>
            </g>
        </g>
    </g>
</svg>