<?xml version="1.0" encoding="UTF-8"?>
<svg width="24px" height="24px" viewBox="0 0 24 24" version="1.1" xmlns="http://www.w3.org/2000/svg" xmlns:xlink="http://www.w3.org/1999/xlink">
    <!-- Generator: Sketch 63.1 (92452) - https://sketch.com -->
    <title>Combined Shape</title>
    <desc>Created with Sketch.</desc>
    <g id="SVG-Output" stroke="none" stroke-width="1" fill="none" fill-rule="evenodd">
        <g id="iPhone-8" transform="translate(-233.000000, -212.000000)" fill="#040714" fill-rule="nonzero">
            <path d="M253.940202,212 L257,215.058904 L257,232.941065 L253.941065,236 L236.058904,236 L233,232.940202 L233,215.059766 L236.059766,212 L253.940202,212 Z M251.291,232 L238.708,232 L236.89,235.272 L253.109,235.272 L251.291,232 Z M237.306,230.952 L233.922,232.833 L236.166,235.078 L238.047,231.693 L237.306,230.952 Z M252.693,230.953 L251.953,231.693 L253.833,235.078 L256.078,232.833 L252.693,230.953 Z M253,230.291 L256.272,232.109 L256.272,215.971 L253,217.789 L253,230.291 Z M233.727,215.971 L233.727,232.109 L237,230.291 L237,228.674 L237,228.676046 L237,219.323954 L237,219.325 L237,217.789 L233.727,215.971 Z M240.113,229.47 L239.112,231.272 L241.634,231.272 L244.335,229.771 L240.113,229.47 Z M245,230.234182 L243.130182,231.272727 L246.869455,231.272727 L245,230.234182 Z M249.886,229.47 L245.665,229.771 L248.366,231.272 L250.887,231.272 L249.886,229.47 Z M238.973,230.026 L237.967,230.585 L238.414,231.032 L238.973,230.026 Z M251.026,230.026 L251.585,231.031 L252.031,230.585 L251.026,230.026 Z M239.228,224.665 L237.727,227.366 L237.727,229.887 L239.529,228.886 L239.228,224.665 Z M250.771,224.665 L250.47,228.886 L252.272,229.887 L252.272,227.366 L250.771,224.665 Z M245,218.909818 L240.249091,219.249091 L239.909818,223.999636 L240.249091,228.750545 L245,229.089818 L249.750545,228.750545 L250.089818,223.999636 L249.750545,219.249091 L245,218.909818 Z M252.272727,222.130182 L251.234182,224 L252.272727,225.869455 L252.272727,222.130182 Z M237.727273,222.130909 L237.727273,225.868727 L238.765455,224 L237.727273,222.130909 Z M237.727,218.193 L237.727,220.634 L239.228,223.335 L239.524,219.191 L237.727,218.193 Z M252.272,218.193 L250.475,219.191 L250.771,223.335 L252.272,220.634 L252.272,218.193 Z M241.634,216.727 L239.193,216.727 L240.191,218.524 L244.335,218.228 L241.634,216.727 Z M250.806,216.727 L248.366,216.727 L245.665,218.228 L249.808,218.524 L250.806,216.727 Z M238.466,216.915 L237.915,217.466 L239.155,218.155 L238.466,216.915 Z M251.533,216.916 L250.844,218.155 L252.084,217.466 L251.533,216.916 Z M246.868727,216.727273 L243.130909,216.727273 L245,217.765455 L246.868727,216.727273 Z M236.218,212.869 L233.869,215.218 L237.254,217.099 L238.099,216.254 L236.218,212.869 Z M253.781,212.87 L251.9,216.254 L252.745,217.099 L256.13,215.218 L253.781,212.87 Z M253.028,212.727 L236.971,212.727 L238.789,216 L240.325,216 L240.323954,216 L249.676046,216 L249.674,216 L251.21,216 L253.028,212.727 Z" id="Combined-Shape"></path>
        </g>
    </g>
</svg>