<?xml version="1.0" encoding="UTF-8"?>
<svg width="16px" height="24px" viewBox="0 0 16 24" version="1.1" xmlns="http://www.w3.org/2000/svg" xmlns:xlink="http://www.w3.org/1999/xlink">
    <!-- Generator: Sketch 63.1 (92452) - https://sketch.com -->
    <title>Combined Shape</title>
    <desc>Created with Sketch.</desc>
    <g id="Main" stroke="none" stroke-width="1" fill="none" fill-rule="evenodd">
        <g id="Filter---Gemstone" transform="translate(-235.000000, -356.000000)" fill="#040714" fill-rule="nonzero">
            <g id="Group-19-Copy" transform="translate(211.000000, 350.000000)">
                <path d="M40,6 L40,30 L24,30 L24,6 L40,6 Z M39.5038097,6.7382868 L24.4960346,6.7382868 L24.4960346,29.2615712 L39.5038097,29.2615712 L39.5038097,6.7382868 Z M38.2004326,8.77141505 L38.2004326,27.228585 L25.7995674,27.228585 L25.7995674,8.77141505 L38.2004326,8.77141505 Z M37.7041961,9.50944628 L26.2954001,9.50944628 L26.2954001,26.4900426 L37.7041961,26.4900426 L37.7041961,9.50944628 Z M36.2162942,11.7245622 L36.2162942,24.2754378 L27.7837058,24.2754378 L27.7837058,11.7245622 L36.2162942,11.7245622 Z M35.7200577,12.4625935 L28.2795386,12.4625935 L28.2795386,23.5368954 L35.7200577,23.5368954 L35.7200577,12.4625935 Z" id="Combined-Shape"></path>
            </g>
        </g>
    </g>
</svg>