<?xml version="1.0" encoding="UTF-8"?>
<svg width="24px" height="24px" viewBox="0 0 24 24" version="1.1" xmlns="http://www.w3.org/2000/svg" xmlns:xlink="http://www.w3.org/1999/xlink">
    <!-- Generator: Sketch 63.1 (92452) - https://sketch.com -->
    <title>Combined Shape</title>
    <desc>Created with Sketch.</desc>
    <g id="Main" stroke="none" stroke-width="1" fill="none" fill-rule="evenodd">
        <g id="Filter---Gemstone" transform="translate(-233.000000, -164.000000)" fill="#040714" fill-rule="nonzero">
            <g id="Group-13" transform="translate(211.000000, 158.000000)">
                <path d="M34,6 C34.7004983,6 35.3869778,6.06002176 36.0545761,6.17520291 L36.0570379,6.17203202 C37.8394064,6.48422496 39.483195,7.18326709 40.9010182,8.18164537 L41.1818182,8.18181818 L41.1815761,8.38530995 C42.1938611,9.14264432 43.0825696,10.0560971 43.8120013,11.0899681 L43.8181818,11.0909091 C44.8167329,12.516805 45.515775,14.1605936 45.8235935,15.9384601 L45.827968,15.9429621 C45.9399782,16.6130222 46,17.2995017 46,18 C46,18.7004983 45.9399782,19.3869778 45.8247971,20.0545761 L45.827968,20.0570379 C45.515775,21.8394064 44.8167329,23.483195 43.8183546,24.9010182 L43.8181818,25.1818182 L43.6146901,25.1815761 C41.8172694,27.5840843 39.1404654,29.2905107 36.0615399,29.8235935 L36.0570379,29.827968 C35.3869778,29.9399782 34.7004983,30 34,30 C31.4312167,30 29.0509513,29.1928589 27.0989818,27.8183546 L27.0909091,27.8181818 C24.5447634,26.0162715 22.7293605,23.2552353 22.1764065,20.0615399 L22.172032,20.0570379 C22.0600218,19.3869778 22,18.7004983 22,18 C22,15.4312167 22.8071411,13.0509513 24.1816454,11.0989818 L24.1818182,11.0909091 C24.9819624,9.96463164 25.9646316,8.98196244 27.0899681,8.1879987 L27.0909091,8.18181818 C28.516805,7.18326709 30.1605936,6.48422496 31.9384601,6.1764065 L31.9429621,6.17203202 C32.6130222,6.06002176 33.2995017,6 34,6 Z M34,27.77 L32.5862032,29.1849255 C33.0493229,29.2428734 33.5211751,29.2727273 34,29.2727273 C34.4791687,29.2727273 34.9513546,29.2428305 35.4147942,29.1848007 L34,27.77 Z M40.181,25.181 L36.589,25.181 L34.514,27.256 L36.2969457,29.0385398 C37.7061956,28.7468081 39.0191823,28.1920017 40.1822675,27.4277588 L40.181,25.181 Z M31.411,25.181 L28.09,25.181 L28.0901505,27.60123 C29.1844075,28.2762137 30.4027537,28.7693619 31.7030543,29.0385398 L33.486,27.256 L31.411,25.181 Z M27.09,25.181 L25.3105785,25.1815899 C25.8385777,25.8197249 26.4355214,26.3987301 27.0899964,26.9071922 L27.09,25.181 Z M35.56,25.181 L32.439,25.181 L34,26.742 L35.56,25.181 Z M42.6894215,25.1815899 L41.181,25.181 L41.1815899,26.6894215 C41.7303457,26.2353756 42.2353756,25.7303457 42.6894215,25.1815899 Z M24.743,18.514 L22.9614602,20.2969457 C23.2531919,21.7061956 23.8079983,23.0191823 24.5722412,24.1822675 L27.09,24.181 L27.09,20.861 L24.743,18.514 Z M28.09,21.861 L28.09,24.181 L30.411,24.181 L28.09,21.861 Z M43.256,18.514 L41.181,20.588 L41.181,24.181 L43.4277588,24.1822675 C44.1920017,23.0191823 44.7468081,21.7061956 45.0385398,20.2969457 L43.256,18.514 Z M36.832,12.09 L31.167,12.09 L28.09,15.167 L28.09,20.832 L31.439,24.181 L36.56,24.181 L40.181,20.56 L40.181,15.439 L36.832,12.09 Z M40.181,21.588 L37.589,24.181 L40.181,24.181 L40.181,21.588 Z M27.09,16.167 L25.258,18 L27.09,19.832 L27.09,16.167 Z M41.181,16.439 L41.181,19.56 L42.742,18 L41.181,16.439 Z M45.1848007,16.5852058 L43.77,18 L45.1848007,19.4147942 C45.2310497,19.0454388 45.2594289,18.6705279 45.2690455,18.2909542 L45.2727273,18 C45.2727273,17.5208313 45.2428305,17.0486454 45.1848007,16.5852058 Z M22.8150745,16.5862032 C22.7571266,17.0493229 22.7272727,17.5211751 22.7272727,18 C22.7272727,18.4791687 22.7571695,18.9513546 22.8151993,19.4147942 L24.229,18 Z M27.09,12.09 L24.39877,12.0901505 C23.7237863,13.1844075 23.2306381,14.4027537 22.9614602,15.7030543 L24.744,17.486 L27.09,15.139 L27.09,12.09 Z M43.60123,12.0901505 L41.181,12.09 L41.181,15.411 L43.256,17.486 L45.0385398,15.7030543 C44.7693619,14.4027537 44.2762137,13.1844075 43.60123,12.0901505 Z M40.181,12.09 L37.86,12.09 L40.181,14.411 L40.181,12.09 Z M30.139,12.09 L28.09,12.09 L28.09,14.139 L30.139,12.09 Z M27.0899964,9.09280781 C26.3438536,9.67248665 25.6724867,10.3438536 25.0928078,11.0899964 L27.09,11.09 Z M31.7030543,6.96146016 C30.4027537,7.2306381 29.1844075,7.72378634 28.0901505,8.39877003 L28.09,11.09 L31.139,11.09 L33.486,8.744 Z M41.1815899,9.31057853 L41.181,11.09 L42.9071922,11.0899964 C42.3987301,10.4355214 41.8197249,9.83857766 41.1815899,9.31057853 Z M36.2969457,6.96146016 L34.514,8.744 L36.86,11.09 L40.181,11.09 L40.1822675,8.57224116 C39.0191823,7.80799833 37.7061956,7.25319194 36.2969457,6.96146016 Z M34,9.258 L32.167,11.09 L35.832,11.09 L34,9.258 Z M34,6.72727273 C33.5208313,6.72727273 33.0486454,6.75716945 32.5852058,6.81519932 L34,8.23 L35.4147942,6.81519932 C35.0454388,6.76895026 34.6705279,6.74057106 34.2909542,6.73095448 Z" id="Combined-Shape"></path>
            </g>
        </g>
    </g>
</svg>