<?xml version="1.0" encoding="UTF-8"?>
<svg width="24px" height="24px" viewBox="0 0 24 24" version="1.1" xmlns="http://www.w3.org/2000/svg" xmlns:xlink="http://www.w3.org/1999/xlink">
    <!-- Generator: Sketch 63.1 (92452) - https://sketch.com -->
    <title>Combined Shape</title>
    <desc>Created with Sketch.</desc>
    <g id="Main" stroke="none" stroke-width="1" fill="none" fill-rule="evenodd">
        <g id="Filter---Gemstone" transform="translate(-76.000000, -212.000000)" fill="#040714" fill-rule="nonzero">
            <g id="Group-19" transform="translate(52.000000, 206.000000)">
                <path d="M48,6 L48,30 L24,30 L24,6 L48,6 Z M47.2557145,6.7382868 L24.7440519,6.7382868 L24.7440519,29.2615712 L47.2557145,29.2615712 L47.2557145,6.7382868 Z M45.3006489,8.77141505 L45.3006489,27.228585 L26.6993511,27.228585 L26.6993511,8.77141505 L45.3006489,8.77141505 Z M44.5562942,9.50944628 L27.4431002,9.50944628 L27.4431002,26.4900426 L44.5562942,26.4900426 L44.5562942,9.50944628 Z M42.3244412,11.7245622 L42.3244412,24.2754378 L29.6755588,24.2754378 L29.6755588,11.7245622 L42.3244412,11.7245622 Z M41.5800865,12.4625935 L30.4193079,12.4625935 L30.4193079,23.5368954 L41.5800865,23.5368954 L41.5800865,12.4625935 Z" id="Combined-Shape"></path>
            </g>
        </g>
    </g>
</svg>