<?xml version="1.0" encoding="UTF-8"?>
<svg width="24px" height="21px" viewBox="0 0 24 21" version="1.1" xmlns="http://www.w3.org/2000/svg" xmlns:xlink="http://www.w3.org/1999/xlink">
    <!-- Generator: Sketch 63.1 (92452) - https://sketch.com -->
    <title>Combined Shape</title>
    <desc>Created with Sketch.</desc>
    <g id="Main" stroke="none" stroke-width="1" fill="none" fill-rule="evenodd">
        <g id="Filter---Gemstone" transform="translate(-235.000000, -262.000000)" fill="#040714" fill-rule="nonzero">
            <g id="Group-26" transform="translate(211.000000, 254.000000)">
                <path d="M35.8109324,8.01596577 L35.8793891,8.0449564 C35.9087081,8.0391616 35.9387543,8.03687955 35.9688098,8.03825214 C35.988569,8.03743921 36.0088122,8.03734989 36.0291473,8.038963 L36.0640695,8.03820323 C36.1629619,8.04241925 36.2588964,8.08590793 36.3260334,8.16356221 L36.3515179,8.19676751 L42.77261,17.6525667 L42.7952801,17.69095 L47.7880314,27.5110291 C47.8781412,27.5774154 47.9335107,27.6827738 47.9329667,27.7962176 L47.9619591,27.8547089 C48.0512969,28.030452 47.9779106,28.2436829 47.7980461,28.3309736 C47.6751086,28.3906368 47.5342471,28.3760217 47.42887,28.3046767 L36.0226931,29 L35.9773069,29 L24.570067,28.3053937 C24.4758441,28.368703 24.3535215,28.3868137 24.2410226,28.3472652 L24.2019539,28.3309736 C24.0349369,28.249918 23.9597301,28.060271 24.0213672,27.8928824 L24.0380409,27.8547089 L29.2047199,17.69095 L29.22739,17.6525667 L35.394,8.57 L35.3591793,8.46998229 C35.2944122,8.28423911 35.3960138,8.08236346 35.586113,8.0190804 C35.6617647,7.99389632 35.7400313,7.99445659 35.8109324,8.01596577 Z M35.9828054,25.8868116 L26.782,27.726 L36.0000377,28.2890236 L45.31,27.72 L36.1225794,25.9454107 C36.0705895,25.9353653 36.0233966,25.9149547 35.9828054,25.8868116 Z M31.203,20.861 L25.471,27.263 L33.459,25.665 L29.4344185,25.4471303 L29.4182133,25.4461335 C29.4071483,25.4450488 29.3960859,25.4434596 29.3850598,25.4413551 L29.4344185,25.4471303 C29.4037419,25.4454651 29.3741653,25.4401309 29.3461098,25.4315876 C29.3414367,25.4302665 29.3365247,25.4286512 29.3316314,25.4269267 L29.2925757,25.4106055 L29.283136,25.4058006 C29.2661796,25.3969312 29.2500476,25.3867937 29.2348652,25.3755246 L29.2925757,25.4106055 C29.2619752,25.3957257 29.234462,25.3772001 29.2103127,25.3558347 C29.1986164,25.3452331 29.1873666,25.3338592 29.1769305,25.3218056 C29.1717218,25.3160517 29.1669953,25.3102082 29.1624705,25.3042378 C29.1529322,25.2914589 29.1440131,25.277938 29.1360496,25.263846 C29.1311832,25.2553137 29.1266347,25.246362 29.1224802,25.2372469 C29.1171406,25.2255872 29.1124916,25.2137741 29.1084904,25.201689 C29.1048072,25.1904071 29.1015822,25.1786701 29.098975,25.1667902 C29.0965157,25.1557898 29.0946023,25.1443873 29.0932611,25.1328284 C29.0916281,25.1188681 29.0908377,25.1050969 29.0908766,25.0912724 C29.0909595,25.0855622 29.0911478,25.0791301 29.0915152,25.0726673 L29.0925626,25.058143 C29.0937594,25.0460846 29.0955978,25.0340279 29.0980934,25.0220187 L29.0915152,25.0726673 C29.0932714,25.0417805 29.099015,25.0120349 29.1082307,24.983881 C29.109512,24.980249 29.1108872,24.9763069 29.1123377,24.9723772 L29.1290418,24.9342164 C29.1329412,24.9264373 29.1340979,24.9243174 29.1352758,24.9222108 L31.203,20.861 Z M41.277,21.807 L42.8709582,24.9342164 L42.8758289,24.943794 C42.8817559,24.9563683 42.8869574,24.9693508 42.8913782,24.9826934 L42.8709582,24.9342164 C42.8845744,24.9609495 42.8944231,24.9885537 42.900702,25.0164527 C42.9017289,25.0210351 42.902767,25.0262109 42.9036897,25.031428 L42.9074678,25.0584505 C42.9102309,25.086546 42.9095118,25.1146484 42.9055093,25.1421788 L42.9084848,25.0726673 C42.9103319,25.1051549 42.9076517,25.1368652 42.9009805,25.1672123 C42.8973915,25.1833817 42.8924983,25.1998391 42.8864249,25.2158772 C42.8838804,25.2227159 42.8809033,25.229852 42.8776989,25.2368715 C42.8715851,25.2502648 42.864863,25.2629226 42.8573673,25.2751708 C42.8515915,25.2844396 42.8451008,25.2939586 42.8381652,25.303145 C42.8299945,25.3142173 42.8214631,25.3243059 42.8123319,25.3339472 C42.8058301,25.3405666 42.7984107,25.3477935 42.7906811,25.3547013 C42.780135,25.364369 42.7686824,25.3734225 42.7565776,25.3818354 C42.7485327,25.3872906 42.7405725,25.3923903 42.7323987,25.3971866 C42.7245743,25.4018501 42.7161241,25.4063751 42.7074243,25.4106055 L42.6920282,25.4176215 C42.6835631,25.4212662 42.6749233,25.4246064 42.6661226,25.4276272 L42.7074243,25.4106055 C42.6778499,25.4249864 42.647234,25.4350662 42.6163211,25.4410888 C42.6140076,25.4413541 42.610905,25.4419189 42.6077879,25.4424452 L42.5655815,25.4471303 L38.449,25.67 L46.131,27.155 L41.277,21.807 Z M36.615,9.87 L39.785,18.959 L39.9419762,19.1898445 L39.9647013,19.2282464 L40.034,19.366 L46.401,26.381 L42.1530873,18.0254287 L36.615,9.87 Z M34.838,10.676 L29.8451698,18.0275605 L25.998,25.594 L31.9081813,18.9959331 C31.9425071,18.9576027 31.9834002,18.928213 32.0277819,18.9079647 L34.838,10.676 Z M35.999,14.679 L32.6767872,19.563529 L30.026,24.767 L36.0000377,25.0916653 L41.973,24.767 L39.428,19.77 L39.237695,19.5591266 C39.172293,19.4870621 39.1423167,19.3962674 39.1465156,19.3070959 L35.999,14.679 Z M35.863,9.915 L33.345,17.298 L35.6698881,13.8813256 C35.746327,13.7689799 35.8768977,13.7128838 36.0053858,13.7240965 C36.1169708,13.7168262 36.2289873,13.7608481 36.3045968,13.8481427 L36.3301119,13.8813256 L38.209,16.644 L35.863,9.915 Z" id="Combined-Shape"></path>
            </g>
        </g>
    </g>
</svg>